<?xml version="1.0" standalone="no"?>
<!DOCTYPE svg PUBLIC "-//W3C//DTD SVG 20010904//EN"
 "http://www.w3.org/TR/2001/REC-SVG-20010904/DTD/svg10.dtd">
<svg version="1.0" xmlns="http://www.w3.org/2000/svg"
 width="800.000000pt" height="800.000000pt" viewBox="0 0 800.000000 800.000000"
 preserveAspectRatio="xMidYMid meet">
<metadata>
Created by potrace 1.11, written by Peter Selinger 2001-2013
</metadata>
<g transform="translate(0.000000,800.000000) scale(0.100000,-0.100000)"
fill="#000000" stroke="none">
<path d="M3858 6905 c-2 -2 -28 -6 -58 -10 -30 -3 -86 -13 -125 -21 -38 -8
-79 -17 -90 -19 -24 -6 -202 -63 -230 -75 -201 -84 -395 -210 -544 -354 -80
-78 -222 -255 -244 -306 -7 -14 -14 -27 -18 -30 -10 -8 -57 -104 -79 -162 -11
-29 -25 -62 -30 -73 -17 -36 -60 -219 -67 -285 -13 -124 -8 -309 12 -415 40
-207 148 -430 294 -605 25 -30 101 -110 169 -178 l123 -123 -45 -47 c-24 -26
-68 -72 -96 -102 -45 -48 -126 -132 -474 -493 -227 -236 -461 -479 -536 -557
-47 -48 -179 -185 -295 -305 -115 -120 -258 -267 -317 -328 -60 -61 -108 -111
-108 -112 0 -1 -48 -51 -107 -112 -465 -479 -630 -648 -710 -729 -51 -52 -93
-96 -93 -98 0 -2 14 -3 30 -2 17 1 30 -2 30 -7 0 -4 5 -5 11 -1 16 10 600 11
606 1 2 -4 9 -4 15 -1 6 4 38 7 72 8 l61 1 121 125 c67 69 148 153 180 186 32
34 145 151 251 260 106 110 249 258 318 329 139 144 457 473 549 569 32 33
144 150 250 259 105 110 223 232 261 271 154 161 386 404 436 460 30 32 72 78
95 102 l40 43 55 -20 c30 -11 61 -23 69 -26 8 -3 17 -7 20 -8 3 -1 14 -5 25
-10 51 -21 246 -95 249 -95 2 0 21 -8 42 -17 22 -9 44 -18 49 -19 15 -4 322
-129 378 -154 26 -11 47 -24 47 -28 0 -4 -32 -38 -70 -76 -69 -68 -656 -666
-841 -858 -102 -105 -575 -591 -704 -723 -342 -351 -540 -558 -543 -565 -2 -4
18 -7 43 -6 26 1 49 -2 51 -6 3 -5 10 -5 16 -2 15 10 219 11 225 1 2 -4 12 -4
21 1 9 4 116 7 237 6 234 -2 224 0 313 -57 79 -51 216 -122 292 -152 25 -9 56
-22 70 -28 14 -6 30 -11 35 -13 6 -1 44 -11 85 -23 74 -20 101 -26 170 -37 19
-3 46 -7 60 -10 65 -13 136 -17 260 -18 183 0 310 11 425 38 11 2 43 10 70 16
28 6 57 13 65 15 38 9 239 82 251 91 8 6 30 17 49 24 51 19 189 98 231 131 20
16 41 29 47 29 6 0 12 3 14 7 2 5 29 30 60 56 284 238 454 556 494 926 17 148
7 298 -30 476 -13 57 -58 189 -86 251 -30 63 -126 232 -139 244 -4 3 -19 23
-36 45 -16 22 -83 93 -149 157 l-119 117 110 113 c139 142 234 241 498 513
116 120 246 254 290 300 44 45 172 178 285 296 113 117 239 247 280 290 72 74
335 348 450 469 30 32 130 136 221 231 223 233 249 263 240 272 -5 5 -44 10
-87 12 -66 3 -609 8 -668 6 -10 -1 -61 -45 -112 -98 -101 -103 -421 -435 -574
-593 -50 -52 -182 -189 -293 -304 -111 -115 -233 -241 -270 -280 -96 -99 -443
-459 -555 -575 -52 -53 -134 -138 -184 -190 l-90 -93 -191 96 c-218 109 -332
157 -619 263 -43 15 -78 31 -78 35 0 4 21 29 48 56 47 49 325 339 499 520 51
53 93 100 93 105 0 4 5 7 10 7 6 0 25 17 43 37 29 33 83 90 332 348 39 40 135
141 215 224 80 84 190 199 245 256 55 57 115 118 133 137 l32 34 -116 115
c-146 144 -147 145 -219 199 -33 25 -65 50 -72 56 -6 6 -35 26 -65 45 -29 18
-55 36 -58 39 -4 4 -37 23 -95 54 -11 6 -22 13 -25 16 -4 5 -214 100 -265 121
-31 12 -137 46 -170 55 -16 4 -34 8 -40 10 -95 24 -148 36 -185 40 -25 2 -56
7 -70 10 -27 6 -377 14 -382 9z m387 -590 c147 -24 203 -37 250 -55 11 -4 36
-14 55 -20 65 -24 197 -90 210 -105 11 -13 9 -20 -12 -43 -76 -82 -149 -161
-198 -212 -338 -356 -310 -327 -675 -705 -121 -125 -282 -290 -358 -366 -160
-162 -142 -159 -263 -42 -147 142 -240 279 -280 408 -16 52 -18 61 -32 137
-12 60 -8 222 6 273 6 22 13 49 15 60 9 48 61 158 107 225 159 234 460 408
769 445 25 3 46 7 48 9 9 9 290 2 358 -9z m731 -3136 c27 -17 76 -59 109 -94
72 -74 78 -83 106 -132 12 -21 25 -42 29 -48 16 -21 53 -134 70 -215 17 -83
21 -269 6 -345 -22 -113 -92 -276 -149 -350 -119 -152 -282 -264 -491 -334
-47 -17 -86 -28 -86 -26 0 3 -11 0 -26 -5 -14 -6 -37 -12 -52 -14 -15 -3 -49
-8 -77 -12 -63 -10 -355 -10 -415 0 -25 4 -81 17 -125 28 -44 11 -85 21 -92
22 -7 1 -16 5 -19 9 -4 4 -13 7 -20 7 -28 0 -185 74 -195 91 -9 18 4 51 36 85
17 18 266 283 319 338 332 349 1002 1026 1015 1026 4 0 29 -14 57 -31z"/>
</g>
</svg>
