<?xml version="1.0" standalone="no"?>
<!DOCTYPE svg PUBLIC "-//W3C//DTD SVG 20010904//EN"
 "http://www.w3.org/TR/2001/REC-SVG-20010904/DTD/svg10.dtd">
<svg version="1.0" xmlns="http://www.w3.org/2000/svg"
 width="402.000000pt" height="402.000000pt" viewBox="0 0 402.000000 402.000000"
 preserveAspectRatio="xMidYMid meet">
<metadata>
Created by potrace 1.11, written by Peter Selinger 2001-2013
</metadata>
<g transform="translate(0.000000,402.000000) scale(0.100000,-0.100000)"
fill="#000000" stroke="none">
<path d="M1461 3590 c-46 -28 -85 -50 -87 -50 -1 0 -80 -45 -174 -101 -95 -55
-180 -103 -189 -107 -9 -3 -22 -11 -28 -18 -7 -7 -18 -14 -25 -16 -10 -4 -13
-189 -14 -916 l-1 -911 39 20 c21 11 77 42 123 70 l85 50 0 767 c0 720 1 768
18 780 9 7 63 39 120 72 81 47 102 56 103 42 2 -55 0 -1804 -3 -1807 -3 -2
-420 -243 -468 -270 -22 -12 -25 -21 -28 -83 -3 -67 -2 -71 26 -91 17 -12 32
-21 35 -21 2 0 64 -35 138 -78 74 -43 154 -90 179 -104 59 -34 275 -159 323
-188 21 -12 40 -20 43 -17 3 2 5 164 4 358 l0 354 251 145 c138 80 269 155
290 167 21 12 40 19 43 14 3 -4 5 -317 5 -696 0 -378 3 -691 8 -695 4 -4 32
-20 61 -36 l52 -29 33 19 c17 10 91 52 162 94 72 41 151 86 176 101 25 14 89
51 142 81 97 55 97 55 98 95 2 202 0 1777 -3 1780 -2 3 -40 -17 -84 -43 -44
-26 -96 -56 -117 -67 -30 -16 -37 -25 -37 -50 -1 -16 -1 -363 -1 -771 l-1
-741 -113 -66 c-62 -37 -117 -67 -123 -67 -6 0 -9 330 -8 907 l1 908 225 130
c307 177 275 150 274 228 0 59 -3 69 -26 87 -15 11 -28 20 -31 20 -3 0 -61 32
-129 71 -67 39 -136 79 -153 89 -16 9 -95 54 -175 100 -80 46 -162 94 -183
107 -22 14 -41 22 -43 20 -3 -2 -6 -163 -7 -358 l-2 -353 -70 -41 c-38 -23
-91 -53 -116 -67 -25 -14 -76 -44 -113 -67 -38 -22 -70 -41 -73 -41 -3 0 -42
-22 -87 -49 -44 -27 -91 -54 -104 -60 l-22 -12 0 563 c0 310 0 624 0 699 l0
136 -59 32 c-32 17 -63 31 -67 31 -5 0 -47 -23 -93 -50z m1132 -827 c38 -24
48 -43 22 -43 -8 0 -15 -4 -15 -8 0 -4 -20 -18 -44 -29 l-43 -21 0 69 c0 66 1
69 21 63 12 -4 38 -18 59 -31z m-324 -671 c0 -70 -3 -132 -7 -139 -7 -12 -122
-81 -242 -147 -30 -16 -58 -34 -62 -40 -4 -6 -8 -7 -8 -3 0 5 -12 0 -27 -11
-16 -11 -76 -47 -135 -80 l-108 -61 0 139 0 140 38 24 c20 13 84 51 142 83
184 104 375 215 384 224 20 18 25 -6 25 -129z m-837 -979 c1 -34 0 -64 -4 -68
-3 -3 -31 8 -63 26 -39 22 -53 35 -46 42 12 12 104 67 107 64 2 -1 4 -30 6
-64z"/>
</g>
</svg>
